<?xml version="1.0" encoding="UTF-8"?>
<!DOCTYPE svg PUBLIC "-//W3C//DTD SVG 1.1//EN" "http://www.w3.org/Graphics/SVG/1.1/DTD/svg11.dtd">
<svg xmlns="http://www.w3.org/2000/svg" version="1.1" width="900px" height="900px" style="shape-rendering:geometricPrecision; text-rendering:geometricPrecision; image-rendering:optimizeQuality; fill-rule:evenodd; clip-rule:evenodd" xmlns:xlink="http://www.w3.org/1999/xlink">
<g><path style="opacity:0.996" fill="#6cc6da" d="M 289.5,34.5 C 300.721,34.6227 312.055,34.6227 323.5,34.5C 321.183,36.7532 318.35,38.4198 315,39.5C 295.12,47.1021 283.454,61.7688 280,83.5C 278.142,109.629 288.642,128.795 311.5,141C 317.993,144.006 324.66,145.839 331.5,146.5C 317.833,146.5 304.167,146.5 290.5,146.5C 268.062,141.107 252.729,128.607 244.5,109C 244.5,107.333 244.5,105.667 244.5,104C 242.854,102.445 242.521,100.779 243.5,99C 242.773,96.876 242.106,94.7094 241.5,92.5C 243.259,62.1538 258.593,43.4872 287.5,36.5C 288.713,36.2528 289.38,35.5862 289.5,34.5 Z"/></g>
<g><path style="opacity:0.997" fill="#77c9d9" d="M 323.5,34.5 C 344.167,34.5 364.833,34.5 385.5,34.5C 355.377,40.7929 338.711,59.2929 335.5,90C 338.118,120.782 354.452,139.615 384.5,146.5C 366.833,146.5 349.167,146.5 331.5,146.5C 324.66,145.839 317.993,144.006 311.5,141C 288.642,128.795 278.142,109.629 280,83.5C 283.454,61.7688 295.12,47.1021 315,39.5C 318.35,38.4198 321.183,36.7532 323.5,34.5 Z"/></g>
<g><path style="opacity:0.996" fill="#80cbd9" d="M 385.5,34.5 C 409.617,35.4567 432.95,40.1234 455.5,48.5C 453.917,50.8632 452.084,50.8632 450,48.5C 430.007,47.7101 413.007,55.7101 399,72.5C 386.193,94.925 386.526,116.592 400,137.5C 405.18,142.967 410.346,148.301 415.5,153.5C 405.676,149.138 395.343,146.804 384.5,146.5C 354.452,139.615 338.118,120.782 335.5,90C 338.711,59.2929 355.377,40.7929 385.5,34.5 Z"/></g>
<g><path style="opacity:0.991" fill="#58b9d9" d="M 213.5,35.5 C 179.396,46.1531 164.229,68.8197 168,103.5C 177.264,133.274 197.43,147.608 228.5,146.5C 212.816,147.691 197.483,147.524 182.5,146C 155.792,138.295 141.126,120.628 138.5,93C 139.297,89.2546 139.797,85.4213 140,81.5C 141.743,75.4405 143.576,69.4405 145.5,63.5C 155.607,47.7767 169.941,38.6101 188.5,36C 197.166,36.1727 205.5,36.006 213.5,35.5 Z"/></g>
<g><path style="opacity:0.997" fill="#58bedc" d="M 213.5,35.5 C 220.167,35.5 226.833,35.5 233.5,35.5C 194.958,46.9035 180.458,72.2369 190,111.5C 198.379,130.394 212.545,142.061 232.5,146.5C 231.167,146.5 229.833,146.5 228.5,146.5C 197.43,147.608 177.264,133.274 168,103.5C 164.229,68.8197 179.396,46.1531 213.5,35.5 Z"/></g>
<g><path style="opacity:0.996" fill="#61c3dc" d="M 289.5,34.5 C 289.38,35.5862 288.713,36.2528 287.5,36.5C 258.593,43.4872 243.259,62.1538 241.5,92.5C 242.106,94.7094 242.773,96.876 243.5,99C 242.521,100.779 242.854,102.445 244.5,104C 244.5,105.667 244.5,107.333 244.5,109C 252.729,128.607 268.062,141.107 290.5,146.5C 275.425,146.755 260.425,147.088 245.5,147.5C 242.375,146.521 239.042,146.187 235.5,146.5C 234.5,146.5 233.5,146.5 232.5,146.5C 212.545,142.061 198.379,130.394 190,111.5C 180.458,72.2369 194.958,46.9035 233.5,35.5C 252.337,35.3951 271.003,35.0617 289.5,34.5 Z"/></g>
<g><path style="opacity:0.995" fill="#7eccdc" d="M 455.5,48.5 C 472.488,55.1604 488.488,63.6604 503.5,74C 511.201,79.5216 518.534,85.5216 525.5,92C 529.107,95.0977 532.107,98.5977 534.5,102.5C 509.314,85.4779 484.647,86.6446 460.5,106C 441.994,127.722 439.327,151.222 452.5,176.5C 441.641,166.565 429.308,158.898 415.5,153.5C 410.346,148.301 405.18,142.967 400,137.5C 386.526,116.592 386.193,94.925 399,72.5C 413.007,55.7101 430.007,47.7101 450,48.5C 452.084,50.8632 453.917,50.8632 455.5,48.5 Z"/></g>
<g><path style="opacity:0.995" fill="#58b1d6" d="M 145.5,63.5 C 143.576,69.4405 141.743,75.4405 140,81.5C 139.797,85.4213 139.297,89.2546 138.5,93C 141.126,120.628 155.792,138.295 182.5,146C 197.483,147.524 212.816,147.691 228.5,146.5C 229.833,146.5 231.167,146.5 232.5,146.5C 233.5,146.5 234.5,146.5 235.5,146.5C 217.414,170.276 194.414,176.776 166.5,166C 149.725,157.263 139.059,143.763 134.5,125.5C 134.333,112.496 134.5,99.4957 135,86.5C 136.378,77.7509 139.878,70.0843 145.5,63.5 Z"/></g>
<g><path style="opacity:0.994" fill="#7bcbde" d="M 534.5,102.5 C 548.905,114.919 559.905,129.919 567.5,147.5C 567.565,147.938 567.399,148.272 567,148.5C 552.853,128.883 533.686,121.383 509.5,126C 483.528,134.054 469.194,151.387 466.5,178C 466.932,184.994 468.265,191.827 470.5,198.5C 470.376,199.107 470.043,199.44 469.5,199.5C 464.577,191.337 458.91,183.671 452.5,176.5C 439.327,151.222 441.994,127.722 460.5,106C 484.647,86.6446 509.314,85.4779 534.5,102.5 Z"/></g>
<g><path style="opacity:0.995" fill="#78cae2" d="M 567.5,147.5 C 579.142,167.352 587.142,188.685 591.5,211.5C 590.624,211.631 589.957,211.298 589.5,210.5C 577.603,185.879 557.936,174.713 530.5,177C 500.506,183.491 484.173,201.991 481.5,232.5C 479.088,220.933 475.088,209.933 469.5,199.5C 470.043,199.44 470.376,199.107 470.5,198.5C 468.265,191.827 466.932,184.994 466.5,178C 469.194,151.387 483.528,134.054 509.5,126C 533.686,121.383 552.853,128.883 567,148.5C 567.399,148.272 567.565,147.938 567.5,147.5 Z"/></g>
<g><path style="opacity:1" fill="#57abd3" d="M 134.5,125.5 C 139.059,143.763 149.725,157.263 166.5,166C 194.414,176.776 217.414,170.276 235.5,146.5C 239.042,146.187 242.375,146.521 245.5,147.5C 240.825,159.622 233.492,170.122 223.5,179C 197.015,195.418 172.182,193.251 149,172.5C 147,169.833 145,167.167 143,164.5C 139.3,158.111 136.466,151.444 134.5,144.5C 134.5,138.167 134.5,131.833 134.5,125.5 Z"/></g>
<g><path style="opacity:0.998" fill="#56a5d1" d="M 134.5,144.5 C 136.466,151.444 139.3,158.111 143,164.5C 145,167.167 147,169.833 149,172.5C 172.182,193.251 197.015,195.418 223.5,179C 233.492,170.122 240.825,159.622 245.5,147.5C 245.5,153.833 245.5,160.167 245.5,166.5C 237.795,204.009 214.795,220.509 176.5,216C 152.718,208.723 138.718,192.89 134.5,168.5C 134.5,160.5 134.5,152.5 134.5,144.5 Z"/></g>
<g><path style="opacity:0.995" fill="#73c9e5" d="M 591.5,211.5 C 595.107,231.093 596.107,250.76 594.5,270.5C 588.765,238.933 569.931,221.266 538,217.5C 509.784,219.896 491.617,234.563 483.5,261.5C 483.81,251.712 483.144,242.046 481.5,232.5C 484.173,201.991 500.506,183.491 530.5,177C 557.936,174.713 577.603,185.879 589.5,210.5C 589.957,211.298 590.624,211.631 591.5,211.5 Z"/></g>
<g><path style="opacity:0.998" fill="#559ecd" d="M 245.5,166.5 C 245.5,175.5 245.5,184.5 245.5,193.5C 242.473,217.71 229.473,234.21 206.5,243C 174.06,250.197 151.227,238.697 138,208.5C 136.88,204.026 135.714,199.693 134.5,195.5C 134.5,186.5 134.5,177.5 134.5,168.5C 138.718,192.89 152.718,208.723 176.5,216C 214.795,220.509 237.795,204.009 245.5,166.5 Z"/></g>
<g><path style="opacity:0.997" fill="#5399cb" d="M 245.5,193.5 C 245.5,201.5 245.5,209.5 245.5,217.5C 235.643,253.782 211.976,268.949 174.5,263C 152.673,255.108 139.34,239.941 134.5,217.5C 134.5,210.167 134.5,202.833 134.5,195.5C 135.714,199.693 136.88,204.026 138,208.5C 151.227,238.697 174.06,250.197 206.5,243C 229.473,234.21 242.473,217.71 245.5,193.5 Z"/></g>
<g><path style="opacity:0.998" fill="#5492c9" d="M 134.5,217.5 C 139.34,239.941 152.673,255.108 174.5,263C 211.976,268.949 235.643,253.782 245.5,217.5C 245.5,225.5 245.5,233.5 245.5,241.5C 239.991,272.783 221.324,289.783 189.5,292.5C 158.151,289.461 139.818,272.795 134.5,242.5C 134.5,234.167 134.5,225.833 134.5,217.5 Z"/></g>
<g><path style="opacity:0.995" fill="#6dc8e9" d="M 594.5,270.5 C 592.543,294.361 586.543,317.027 576.5,338.5C 580.372,309.622 569.372,288.455 543.5,275C 523.542,267.335 504.875,269.668 487.5,282C 483.182,286.49 478.849,290.657 474.5,294.5C 479.145,283.94 482.145,272.94 483.5,261.5C 491.617,234.563 509.784,219.896 538,217.5C 569.931,221.266 588.765,238.933 594.5,270.5 Z"/></g>
<g><path style="opacity:0.998" fill="#528cc5" d="M 245.5,241.5 C 245.5,249.833 245.5,258.167 245.5,266.5C 241.574,299.759 222.907,317.759 189.5,320.5C 158.844,317.837 140.511,301.504 134.5,271.5C 134.5,261.833 134.5,252.167 134.5,242.5C 139.818,272.795 158.151,289.461 189.5,292.5C 221.324,289.783 239.991,272.783 245.5,241.5 Z"/></g>
<g><path style="opacity:0.999" fill="#69c8ee" d="M 576.5,338.5 C 573.641,347.216 569.974,355.549 565.5,363.5C 561.912,364.331 558.245,364.331 554.5,363.5C 554.5,362.833 554.167,362.5 553.5,362.5C 554.239,337.684 542.573,319.517 518.5,308C 502.25,302.33 486.584,303.33 471.5,311C 469.667,311.5 468.5,312.667 468,314.5C 466.855,314.381 465.688,314.048 464.5,313.5C 468.626,307.582 471.959,301.249 474.5,294.5C 478.849,290.657 483.182,286.49 487.5,282C 504.875,269.668 523.542,267.335 543.5,275C 569.372,288.455 580.372,309.622 576.5,338.5 Z"/></g>
<g><path style="opacity:0.998" fill="#5185c2" d="M 245.5,266.5 C 245.5,275.167 245.5,283.833 245.5,292.5C 236.365,325.834 214.698,341.334 180.5,339C 155.125,332.793 139.791,316.959 134.5,291.5C 134.5,284.833 134.5,278.167 134.5,271.5C 140.511,301.504 158.844,317.837 189.5,320.5C 222.907,317.759 241.574,299.759 245.5,266.5 Z"/></g>
<g><path style="opacity:0.998" fill="#517fbf" d="M 134.5,291.5 C 139.791,316.959 155.125,332.793 180.5,339C 214.698,341.334 236.365,325.834 245.5,292.5C 245.5,301.5 245.5,310.5 245.5,319.5C 236.644,353.262 215.144,369.262 181,367.5C 155.003,361.006 139.503,344.673 134.5,318.5C 134.5,309.5 134.5,300.5 134.5,291.5 Z"/></g>
<g><path style="opacity:0.997" fill="#68c4ef" d="M 553.5,362.5 C 545.86,361.572 538.193,360.906 530.5,360.5C 528.052,359.527 525.385,359.194 522.5,359.5C 514.35,358.507 506.017,358.174 497.5,358.5C 495.38,354.546 492.38,351.379 488.5,349C 471.287,338.071 453.287,335.904 434.5,342.5C 445.795,334.205 455.795,324.539 464.5,313.5C 465.688,314.048 466.855,314.381 468,314.5C 468.5,312.667 469.667,311.5 471.5,311C 486.584,303.33 502.25,302.33 518.5,308C 542.573,319.517 554.239,337.684 553.5,362.5 Z"/></g>
<g><path style="opacity:0.998" fill="#5079bc" d="M 134.5,318.5 C 139.503,344.673 155.003,361.006 181,367.5C 215.144,369.262 236.644,353.262 245.5,319.5C 245.5,327.5 245.5,335.5 245.5,343.5C 239.118,379.716 217.451,396.882 180.5,395C 154.191,388.529 138.857,372.029 134.5,345.5C 134.5,336.5 134.5,327.5 134.5,318.5 Z"/></g>
<g><path style="opacity:0.996" fill="#6cbeeb" d="M 497.5,358.5 C 471.815,358.223 446.148,358.557 420.5,359.5C 409.786,358.512 399.119,358.178 388.5,358.5C 404.66,355.779 419.994,350.446 434.5,342.5C 453.287,335.904 471.287,338.071 488.5,349C 492.38,351.379 495.38,354.546 497.5,358.5 Z"/></g>
<g><path style="opacity:0.997" fill="#4f72b7" d="M 245.5,343.5 C 245.5,354.833 245.5,366.167 245.5,377.5C 234.126,414.34 209.459,428.84 171.5,421C 150.31,411.986 137.977,396.153 134.5,373.5C 134.5,364.167 134.5,354.833 134.5,345.5C 138.857,372.029 154.191,388.529 180.5,395C 217.451,396.882 239.118,379.716 245.5,343.5 Z"/></g>
<g><path style="opacity:0.991" fill="#6fb2e2" d="M 388.5,358.5 C 399.119,358.178 409.786,358.512 420.5,359.5C 391.418,369.056 376.751,388.556 376.5,418C 379.57,437.91 389.57,453.243 406.5,464C 412.579,465.491 418.246,467.658 423.5,470.5C 408.203,469.395 392.869,469.395 377.5,470.5C 343.141,467.474 324.474,448.808 321.5,414.5C 323.262,384.237 338.929,365.737 368.5,359C 375.158,358.5 381.825,358.334 388.5,358.5 Z"/></g>
<g><path style="opacity:0.998" fill="#6fadde" d="M 497.5,358.5 C 506.017,358.174 514.35,358.507 522.5,359.5C 507.833,359.5 493.167,359.5 478.5,359.5C 451.411,354.56 429.911,362.56 414,383.5C 409.319,390.362 406.152,397.862 404.5,406C 403.118,438.824 418.785,460.324 451.5,470.5C 441.987,470.406 432.654,470.406 423.5,470.5C 418.246,467.658 412.579,465.491 406.5,464C 389.57,453.243 379.57,437.91 376.5,418C 376.751,388.556 391.418,369.056 420.5,359.5C 446.148,358.557 471.815,358.223 497.5,358.5 Z"/></g>
<g><path style="opacity:0.998" fill="#71a9db" d="M 478.5,359.5 C 445.421,367.86 430.254,389.194 433,423.5C 438.925,449.262 454.759,464.595 480.5,469.5C 470.706,470.459 461.039,470.792 451.5,470.5C 418.785,460.324 403.118,438.824 404.5,406C 406.152,397.862 409.319,390.362 414,383.5C 429.911,362.56 451.411,354.56 478.5,359.5 Z"/></g>
<g><path style="opacity:0.998" fill="#71a5d9" d="M 478.5,359.5 C 493.167,359.5 507.833,359.5 522.5,359.5C 525.385,359.194 528.052,359.527 530.5,360.5C 524.435,360.261 518.435,360.761 512.5,362C 490.043,370.748 477.043,386.748 473.5,410C 472.861,430.065 480.194,446.732 495.5,460C 502.457,464.145 509.457,467.645 516.5,470.5C 504.181,470.389 492.181,470.056 480.5,469.5C 454.759,464.595 438.925,449.262 433,423.5C 430.254,389.194 445.421,367.86 478.5,359.5 Z"/></g>
<g><path style="opacity:0.998" fill="#71a1d5" d="M 530.5,360.5 C 538.193,360.906 545.86,361.572 553.5,362.5C 554.167,362.5 554.5,362.833 554.5,363.5C 531.675,365.241 515.342,376.407 505.5,397C 503.217,401.801 501.55,406.801 500.5,412C 500.791,417.291 500.791,422.624 500.5,428C 503.614,438.919 507.947,448.086 513.5,455.5C 517.728,458.774 521.728,462.274 525.5,466C 529.722,467.941 533.722,470.108 537.5,472.5C 530.576,471.113 523.576,470.446 516.5,470.5C 509.457,467.645 502.457,464.145 495.5,460C 480.194,446.732 472.861,430.065 473.5,410C 477.043,386.748 490.043,370.748 512.5,362C 518.435,360.761 524.435,360.261 530.5,360.5 Z"/></g>
<g><path style="opacity:0.995" fill="#729ed3" d="M 554.5,363.5 C 558.245,364.331 561.912,364.331 565.5,363.5C 574.992,365.999 584.326,368.999 593.5,372.5C 571.712,369.6 553.212,376.6 538,393.5C 527.183,409.811 524.516,427.478 530,446.5C 535.548,459.54 544.382,469.54 556.5,476.5C 550.144,475.274 543.811,473.941 537.5,472.5C 533.722,470.108 529.722,467.941 525.5,466C 521.728,462.274 517.728,458.774 513.5,455.5C 507.947,448.086 503.614,438.919 500.5,428C 500.791,422.624 500.791,417.291 500.5,412C 501.55,406.801 503.217,401.801 505.5,397C 515.342,376.407 531.675,365.241 554.5,363.5 Z"/></g>
<g><path style="opacity:0.995" fill="#7299d0" d="M 593.5,372.5 C 615.304,379.569 635.638,389.569 654.5,402.5C 654.44,403.043 654.107,403.376 653.5,403.5C 630.4,393.867 609.4,397.367 590.5,414C 572.246,435.482 569.746,458.649 583,483.5C 585.825,487.325 588.992,490.825 592.5,494C 592.272,494.399 591.938,494.565 591.5,494.5C 586.057,491.608 580.724,488.441 575.5,485C 569.023,482.24 562.69,479.407 556.5,476.5C 544.382,469.54 535.548,459.54 530,446.5C 524.516,427.478 527.183,409.811 538,393.5C 553.212,376.6 571.712,369.6 593.5,372.5 Z"/></g>
<g><path style="opacity:0.998" fill="#4e6cb3" d="M 134.5,373.5 C 137.977,396.153 150.31,411.986 171.5,421C 209.459,428.84 234.126,414.34 245.5,377.5C 245.5,382.833 245.5,388.167 245.5,393.5C 239.455,423.542 221.121,439.875 190.5,442.5C 159.415,440.417 140.748,424.084 134.5,393.5C 134.5,386.833 134.5,380.167 134.5,373.5 Z"/></g>
<g><path style="opacity:0.997" fill="#4e67b0" d="M 134.5,393.5 C 140.748,424.084 159.415,440.417 190.5,442.5C 221.121,439.875 239.455,423.542 245.5,393.5C 245.5,401.5 245.5,409.5 245.5,417.5C 242.758,424.349 239.424,431.016 235.5,437.5C 216.405,460.937 193.072,467.104 165.5,456C 149.425,447.659 139.092,434.159 134.5,415.5C 134.5,408.167 134.5,400.833 134.5,393.5 Z"/></g>
<g><path style="opacity:0.994" fill="#7292cb" d="M 654.5,402.5 C 670.048,412.716 684.048,424.716 696.5,438.5C 665.106,419.15 637.606,423.484 614,451.5C 604.631,467.936 602.964,484.936 609,502.5C 610.989,506.64 613.156,510.64 615.5,514.5C 607.767,507.427 599.767,500.76 591.5,494.5C 591.938,494.565 592.272,494.399 592.5,494C 588.992,490.825 585.825,487.325 583,483.5C 569.746,458.649 572.246,435.482 590.5,414C 609.4,397.367 630.4,393.867 653.5,403.5C 654.107,403.376 654.44,403.043 654.5,402.5 Z"/></g>
<g><path style="opacity:0.996" fill="#4d61ac" d="M 134.5,415.5 C 139.092,434.159 149.425,447.659 165.5,456C 193.072,467.104 216.405,460.937 235.5,437.5C 239.424,431.016 242.758,424.349 245.5,417.5C 245.5,426.167 245.5,434.833 245.5,443.5C 237.865,472.427 219.031,488.094 189,490.5C 168.884,489.012 153.217,480.012 142,463.5C 138.785,457.012 136.285,450.345 134.5,443.5C 134.5,434.167 134.5,424.833 134.5,415.5 Z"/></g>
<g><path style="opacity:0.994" fill="#718dc7" d="M 696.5,438.5 C 708.417,450.414 718.417,463.747 726.5,478.5C 726.565,478.938 726.399,479.272 726,479.5C 712.147,464.441 695.147,458.108 675,460.5C 646.614,467.56 631.114,485.727 628.5,515C 629.212,523.064 630.879,530.897 633.5,538.5C 627.503,530.509 621.503,522.509 615.5,514.5C 613.156,510.64 610.989,506.64 609,502.5C 602.964,484.936 604.631,467.936 614,451.5C 637.606,423.484 665.106,419.15 696.5,438.5 Z"/></g>
<g><path style="opacity:0.998" fill="#4d5ba7" d="M 134.5,443.5 C 136.285,450.345 138.785,457.012 142,463.5C 153.217,480.012 168.884,489.012 189,490.5C 219.031,488.094 237.865,472.427 245.5,443.5C 245.5,452.5 245.5,461.5 245.5,470.5C 234.688,508.082 210.022,522.915 171.5,515C 159.625,510.453 150.125,502.953 143,492.5C 139.562,486.303 136.729,479.969 134.5,473.5C 134.5,463.5 134.5,453.5 134.5,443.5 Z"/></g>
<g><path style="opacity:0.996" fill="#6f86c3" d="M 726.5,478.5 C 739.612,498.127 749.279,519.461 755.5,542.5C 754.504,542.586 753.671,542.252 753,541.5C 745.858,527.364 734.691,517.864 719.5,513C 692.671,506.545 671.171,515.379 655,539.5C 649.827,550.184 647.661,561.517 648.5,573.5C 646.112,567.696 643.945,561.696 642,555.5C 639.156,549.811 636.322,544.145 633.5,538.5C 630.879,530.897 629.212,523.064 628.5,515C 631.114,485.727 646.614,467.56 675,460.5C 695.147,458.108 712.147,464.441 726,479.5C 726.399,479.272 726.565,478.938 726.5,478.5 Z"/></g>
<g><path style="opacity:0.997" fill="#4c55a3" d="M 245.5,470.5 C 245.5,481.5 245.5,492.5 245.5,503.5C 242.428,509.644 239.261,515.978 236,522.5C 213.807,547.745 187.973,552.578 158.5,537C 146.217,527.569 138.217,515.402 134.5,500.5C 134.5,491.5 134.5,482.5 134.5,473.5C 136.729,479.969 139.562,486.303 143,492.5C 150.125,502.953 159.625,510.453 171.5,515C 210.022,522.915 234.688,508.082 245.5,470.5 Z"/></g>
<g><path style="opacity:0.998" fill="#4b4d9e" d="M 134.5,500.5 C 138.217,515.402 146.217,527.569 158.5,537C 187.973,552.578 213.807,547.745 236,522.5C 239.261,515.978 242.428,509.644 245.5,503.5C 245.5,512.167 245.5,520.833 245.5,529.5C 241.13,560.699 223.63,578.699 193,583.5C 165.508,582.736 146.841,569.403 137,543.5C 136.367,539.653 135.533,535.986 134.5,532.5C 134.5,521.833 134.5,511.167 134.5,500.5 Z"/></g>
<g><path style="opacity:0.996" fill="#6e7fbe" d="M 755.5,542.5 C 761.724,565.397 765.057,588.73 765.5,612.5C 763.002,606.289 760.336,599.956 757.5,593.5C 738.148,566.335 713.148,559.168 682.5,572C 674.101,577.396 666.934,584.229 661,592.5C 658.61,598.709 656.11,604.375 653.5,609.5C 652.978,597.32 651.311,585.32 648.5,573.5C 647.661,561.517 649.827,550.184 655,539.5C 671.171,515.379 692.671,506.545 719.5,513C 734.691,517.864 745.858,527.364 753,541.5C 753.671,542.252 754.504,542.586 755.5,542.5 Z"/></g>
<g><path style="opacity:0.999" fill="#4a469a" d="M 245.5,529.5 C 245.5,539.5 245.5,549.5 245.5,559.5C 241.07,589.305 223.903,606.638 194,611.5C 166.397,611.253 147.397,598.253 137,572.5C 136.367,568.653 135.533,564.986 134.5,561.5C 134.5,551.833 134.5,542.167 134.5,532.5C 135.533,535.986 136.367,539.653 137,543.5C 146.841,569.403 165.508,582.736 193,583.5C 223.63,578.699 241.13,560.699 245.5,529.5 Z"/></g>
<g><path style="opacity:0.997" fill="#484097" d="M 245.5,559.5 C 245.5,569.833 245.5,580.167 245.5,590.5C 239.081,620.414 220.581,636.747 190,639.5C 157.737,636.734 139.237,619.4 134.5,587.5C 134.5,578.833 134.5,570.167 134.5,561.5C 135.533,564.986 136.367,568.653 137,572.5C 147.397,598.253 166.397,611.253 194,611.5C 223.903,606.638 241.07,589.305 245.5,559.5 Z"/></g>
<g><path style="opacity:0.996" fill="#6b78b9" d="M 765.5,612.5 C 764.908,635.876 761.575,658.876 755.5,681.5C 755.244,648.408 739.077,627.742 707,619.5C 681.486,617.674 661.986,627.674 648.5,649.5C 651.69,636.382 653.356,623.048 653.5,609.5C 656.11,604.375 658.61,598.709 661,592.5C 666.934,584.229 674.101,577.396 682.5,572C 713.148,559.168 738.148,566.335 757.5,593.5C 760.336,599.956 763.002,606.289 765.5,612.5 Z"/></g>
<g><path style="opacity:0.998" fill="#483b94" d="M 134.5,587.5 C 139.237,619.4 157.737,636.734 190,639.5C 220.581,636.747 239.081,620.414 245.5,590.5C 245.5,600.5 245.5,610.5 245.5,620.5C 240.917,640.63 228.917,655.13 209.5,664C 181.235,672.44 158.735,664.607 142,640.5C 138.365,633.424 135.865,626.091 134.5,618.5C 134.5,608.167 134.5,597.833 134.5,587.5 Z"/></g>
<g><path style="opacity:0.997" fill="#483490" d="M 134.5,618.5 C 135.865,626.091 138.365,633.424 142,640.5C 158.735,664.607 181.235,672.44 209.5,664C 228.917,655.13 240.917,640.63 245.5,620.5C 245.5,633.5 245.5,646.5 245.5,659.5C 237.737,686.423 219.903,701.757 192,705.5C 162.449,703.783 143.282,688.783 134.5,660.5C 134.5,646.5 134.5,632.5 134.5,618.5 Z"/></g>
<g><path style="opacity:0.997" fill="#6973b5" d="M 755.5,681.5 C 750.701,697.689 744.534,713.355 737,728.5C 736.051,730.093 734.885,731.426 733.5,732.5C 741.599,706.447 734.933,684.614 713.5,667C 685.639,651.339 660.306,654.839 637.5,677.5C 641.724,668.386 645.39,659.053 648.5,649.5C 661.986,627.674 681.486,617.674 707,619.5C 739.077,627.742 755.244,648.408 755.5,681.5 Z"/></g>
<g><path style="opacity:0.995" fill="#686db2" d="M 733.5,732.5 C 723.254,753.079 709.921,771.412 693.5,787.5C 693.062,787.565 692.728,787.399 692.5,787C 703.522,769.911 705.356,751.744 698,732.5C 685.136,708.402 665.136,697.735 638,700.5C 629.366,702.817 621.366,706.484 614,711.5C 613.601,711.272 613.435,710.938 613.5,710.5C 622.735,700.348 630.735,689.348 637.5,677.5C 660.306,654.839 685.639,651.339 713.5,667C 734.933,684.614 741.599,706.447 733.5,732.5 Z"/></g>
<g><path style="opacity:0.998" fill="#472e8d" d="M 245.5,659.5 C 245.5,670.833 245.5,682.167 245.5,693.5C 244.046,694.52 243.713,695.687 244.5,697C 240.141,715.091 229.808,728.424 213.5,737C 186.021,747.696 162.854,741.529 144,718.5C 139.391,710.967 136.225,702.967 134.5,694.5C 134.5,683.167 134.5,671.833 134.5,660.5C 143.282,688.783 162.449,703.783 192,705.5C 219.903,701.757 237.737,686.423 245.5,659.5 Z"/></g>
<g><path style="opacity:0.997" fill="#47288b" d="M 245.5,693.5 C 245.5,702.167 245.5,710.833 245.5,719.5C 237.375,758.425 213.542,774.759 174,768.5C 152.443,760.781 139.276,745.781 134.5,723.5C 134.5,713.833 134.5,704.167 134.5,694.5C 136.225,702.967 139.391,710.967 144,718.5C 162.854,741.529 186.021,747.696 213.5,737C 229.808,728.424 240.141,715.091 244.5,697C 243.713,695.687 244.046,694.52 245.5,693.5 Z"/></g>
<g><path style="opacity:0.994" fill="#6567ad" d="M 693.5,787.5 C 673.669,808.648 650.669,825.648 624.5,838.5C 624.389,837.883 624.056,837.383 623.5,837C 641.808,822.084 648.642,802.917 644,779.5C 635.991,752.992 618.158,738.992 590.5,737.5C 584.723,737.404 579.056,738.071 573.5,739.5C 587.929,731.413 601.262,721.747 613.5,710.5C 613.435,710.938 613.601,711.272 614,711.5C 621.366,706.484 629.366,702.817 638,700.5C 665.136,697.735 685.136,708.402 698,732.5C 705.356,751.744 703.522,769.911 692.5,787C 692.728,787.399 693.062,787.565 693.5,787.5 Z"/></g>
<g><path style="opacity:0.996" fill="#6260a9" d="M 624.5,838.5 C 596.739,852.084 567.405,860.417 536.5,863.5C 560.006,856.38 574.173,840.38 579,815.5C 580.117,785.629 566.784,765.296 539,754.5C 538.667,754.833 538.333,755.167 538,755.5C 534.158,754.137 530.325,753.137 526.5,752.5C 542.739,750.191 558.405,745.857 573.5,739.5C 579.056,738.071 584.723,737.404 590.5,737.5C 618.158,738.992 635.991,752.992 644,779.5C 648.642,802.917 641.808,822.084 623.5,837C 624.056,837.383 624.389,837.883 624.5,838.5 Z"/></g>
<g><path style="opacity:0.998" fill="#461e86" d="M 245.5,719.5 C 245.5,741.167 245.5,762.833 245.5,784.5C 244.503,784.47 243.836,784.97 243.5,786C 236.258,807.419 221.925,820.919 200.5,826.5C 199.914,826.291 199.414,825.957 199,825.5C 189.031,828.68 179.197,827.68 169.5,822.5C 168.158,823.902 167.324,823.569 167,821.5C 166.667,821.833 166.333,822.167 166,822.5C 150.476,813.118 139.976,799.784 134.5,782.5C 134.5,762.833 134.5,743.167 134.5,723.5C 139.276,745.781 152.443,760.781 174,768.5C 213.542,774.759 237.375,758.425 245.5,719.5 Z"/></g>
<g><path style="opacity:0.995" fill="#5f51a0" d="M 368.5,753.5 C 383.247,758.088 395.247,766.088 404.5,777.5C 407.988,784.05 410.988,791.217 413.5,799C 416.047,825.718 405.213,846.218 381,860.5C 380.667,860.167 380.333,859.833 380,859.5C 375.433,861.256 370.933,862.923 366.5,864.5C 356.161,864.666 345.828,864.5 335.5,864C 306.16,857.187 290.493,838.687 288.5,808.5C 290.453,780.049 305.12,761.882 332.5,754C 336.483,753.36 340.483,752.86 344.5,752.5C 352.482,752.44 360.482,752.773 368.5,753.5 Z"/></g>
<g><path style="opacity:0.996" fill="#5f53a1" d="M 439.5,753.5 C 439.393,755.379 439.893,755.712 441,754.5C 460.022,760.507 473.022,772.84 480,791.5C 486.106,812.886 481.439,832.219 466,849.5C 458.217,855.132 449.884,859.799 441,863.5C 440,863.167 439,862.833 438,862.5C 437.536,863.094 437.369,863.761 437.5,864.5C 413.833,864.5 390.167,864.5 366.5,864.5C 370.933,862.923 375.433,861.256 380,859.5C 380.333,859.833 380.667,860.167 381,860.5C 405.213,846.218 416.047,825.718 413.5,799C 410.988,791.217 407.988,784.05 404.5,777.5C 395.247,766.088 383.247,758.088 368.5,753.5C 392,752.722 415.667,752.722 439.5,753.5 Z"/></g>
<g><path style="opacity:0.997" fill="#6056a3" d="M 463.5,753.5 C 493.972,762.047 509.639,781.547 510.5,812C 508.545,829.373 500.378,843.54 486,854.5C 481.92,856.25 478.087,858.417 474.5,861C 472.899,861.273 471.399,861.773 470,862.5C 468.215,861.646 467.049,862.313 466.5,864.5C 456.833,864.5 447.167,864.5 437.5,864.5C 437.369,863.761 437.536,863.094 438,862.5C 439,862.833 440,863.167 441,863.5C 449.884,859.799 458.217,855.132 466,849.5C 481.439,832.219 486.106,812.886 480,791.5C 473.022,772.84 460.022,760.507 441,754.5C 439.893,755.712 439.393,755.379 439.5,753.5C 447.527,752.679 455.527,752.679 463.5,753.5 Z"/></g>
<g><path style="opacity:0.995" fill="#6159a5" d="M 526.5,752.5 C 530.325,753.137 534.158,754.137 538,755.5C 538.333,755.167 538.667,754.833 539,754.5C 566.784,765.296 580.117,785.629 579,815.5C 574.173,840.38 560.006,856.38 536.5,863.5C 513.186,864.437 489.852,864.771 466.5,864.5C 467.049,862.313 468.215,861.646 470,862.5C 471.399,861.773 472.899,861.273 474.5,861C 478.087,858.417 481.92,856.25 486,854.5C 500.378,843.54 508.545,829.373 510.5,812C 509.639,781.547 493.972,762.047 463.5,753.5C 484.429,752.662 505.429,752.329 526.5,752.5 Z"/></g>
<g><path style="opacity:0.999" fill="#441e82" d="M 134.5,782.5 C 139.976,799.784 150.476,813.118 166,822.5C 166.333,822.167 166.667,821.833 167,821.5C 167.324,823.569 168.158,823.902 169.5,822.5C 179.197,827.68 189.031,828.68 199,825.5C 199.414,825.957 199.914,826.291 200.5,826.5C 221.925,820.919 236.258,807.419 243.5,786C 243.836,784.97 244.503,784.47 245.5,784.5C 245.5,790.5 245.5,796.5 245.5,802.5C 244.503,802.47 243.836,802.97 243.5,804C 237.552,825.281 223.886,838.948 202.5,845C 168.269,849.367 145.602,834.867 134.5,801.5C 134.5,795.167 134.5,788.833 134.5,782.5 Z"/></g>
<g><path style="opacity:0.977" fill="#43207f" d="M 134.5,801.5 C 145.602,834.867 168.269,849.367 202.5,845C 223.886,838.948 237.552,825.281 243.5,804C 243.836,802.97 244.503,802.47 245.5,802.5C 246.619,835.521 231.286,856.021 199.5,864C 169.728,866.872 148.895,854.705 137,827.5C 134.804,818.981 133.971,810.315 134.5,801.5 Z"/></g>
</svg>
